<?xml version="1.0" encoding="UTF-8" standalone="no"?> <svg xmlns="http://www.w3.org/2000/svg" viewBox="0 0 64 64"><title>Artboard 5</title><g id="Layer_2" data-name="Layer 2"><circle cx="32.03" cy="24.25" r="5.77" transform="translate(-7.76 29.75) rotate(-45)"/><path d="M37.76,31.36h-2a7.72,7.72,0,0,1-7.53,0h-2c-4.1,0-7.47,3.62-8,8.34a15.85,15.85,0,0,0,27.54,0C45.22,35,41.84,31.36,37.76,31.36Z"/><path d="M32,12.23A19.77,19.77,0,1,0,51.77,32,19.79,19.79,0,0,0,32,12.23ZM32,49.6A17.6,17.6,0,1,1,49.6,32,17.61,17.61,0,0,1,32,49.6Z"/></g></svg>